<?xml version="1.0" standalone="no"?>
<!DOCTYPE svg PUBLIC "-//W3C//DTD SVG 20010904//EN"
 "http://www.w3.org/TR/2001/REC-SVG-20010904/DTD/svg10.dtd">
<svg version="1.0" xmlns="http://www.w3.org/2000/svg"
 width="629.000000pt" height="629.000000pt" viewBox="0 0 629.000000 629.000000"
 preserveAspectRatio="xMidYMid meet">
<metadata>
Created by potrace 1.14, written by Peter Selinger 2001-2017
</metadata>
<g transform="translate(0.000000,629.000000) scale(0.100000,-0.100000)"
fill="#000000" stroke="none">
<path d="M3479 6286 c-2 -2 -58 -6 -124 -10 -128 -7 -141 -8 -340 -32 -1373
-162 -2296 -916 -2599 -2124 -39 -156 -83 -401 -91 -507 -3 -37 -7 -79 -10
-93 -6 -31 -19 -328 -19 -430 0 -96 13 -396 19 -435 2 -16 11 -88 20 -160 18
-138 64 -374 91 -465 9 -30 16 -57 16 -60 0 -3 20 -60 44 -128 308 -875 949
-1446 1904 -1696 177 -46 451 -96 620 -111 41 -4 83 -9 92 -10 126 -24 1017
-24 1108 0 8 2 52 6 97 10 46 3 91 8 100 9 10 2 43 7 73 11 457 57 1039 243
1402 447 l106 60 0 1534 0 1534 -1348 0 c-1070 0 -1349 -3 -1352 -12 -2 -7 -3
-254 -3 -548 l1 -535 604 -5 605 -5 0 -439 c0 -433 0 -438 -21 -446 -89 -34
-403 -93 -569 -107 -118 -10 -419 -10 -520 0 -232 22 -411 70 -590 158 -351
172 -541 438 -630 883 -36 183 -44 287 -40 566 4 269 14 365 61 560 154 643
607 987 1394 1057 165 15 744 7 895 -12 17 -2 64 -7 105 -10 74 -6 89 -8 185
-20 95 -12 120 -16 230 -36 153 -28 345 -79 506 -133 75 -25 139 -46 142 -46
3 0 4 343 3 762 l-1 762 -90 28 c-327 102 -796 188 -1170 213 -49 4 -108 9
-130 11 -47 5 -771 15 -776 10z"/>
</g>
</svg>
